<svg width="15" height="21" viewBox="0 0 15 21" fill="none" xmlns="http://www.w3.org/2000/svg">
<path d="M0 8.16667H1.15385V0H9.80769C12.6923 0 15 2.33333 15 5.25C15 8.16667 12.6923 10.5 9.80769 10.5H3.46154V12.8333H10.3846V15.1667H3.46154V21H1.15385V15.1667H0V12.8333H1.15385V10.5H0V8.16667ZM9.80769 2.33333H3.46154V8.16667H9.80769C10.5727 8.16667 11.3065 7.85938 11.8474 7.31239C12.3884 6.76541 12.6923 6.02355 12.6923 5.25C12.6923 4.47645 12.3884 3.73459 11.8474 3.18761C11.3065 2.64062 10.5727 2.33333 9.80769 2.33333V2.33333Z" fill="black"/>
</svg>
